# xmcd CD database file
#
# Track frame offsets:
#	150
#	10753
#	21834
#	35056
#	46947
#	57373
#	66514
#	75489
#	86287
#	95958
#	107384
#	120225
#	130230
#
# Disc length: 1864 seconds
#
# Revision: 3
# Processed by: cddbd v1.5.2PL0 Copyright (c) Steve Scherf et al.
# Submitted via: CDex 1.70beta2
#
DISCID=a007460d
DTITLE=TBOC-WAM - The Best of Country - Walkin' After Midnight
DYEAR=2001
DGENRE=Country
TTITLE0=Waterloo - Stonewall Jackson
TTITLE1=Send Me The Pillow That You Dream On - Hank Locklin
TTITLE2=(I Didn't romise You A) Rose Garden - Lynn Anderson
TTITLE3=Walkin' After Midnight - Patsy Cline
TTITLE4=Wings Of A Dove - Ferlin Husky
TTITLE5=Rawhide - Frankie Laine
TTITLE6=I'll Repossess My Heart - Kitty Wells
TTITLE7=Have I Stayed Away Too Long - Tex Ritter
TTITLE8=Six Days On The Road - Dave Dudley
TTITLE9=The Heart You Break May Be Your Own - Patsy Cline
TTITLE10=Moonlight Gambler - Frankie Laine
TTITLE11=Rhithm And Booze - Buck Owens
TTITLE12=Last Day In The Mines - Dave Dudley
EXTD=YEAR: 2001
EXTT0=
EXTT1=
EXTT2=
EXTT3=
EXTT4=
EXTT5=
EXTT6=
EXTT7=
EXTT8=
EXTT9=
EXTT10=
EXTT11=
EXTT12=
PLAYORDER=
